<svg width="16" height="9" viewBox="0 0 16 9" fill="none" xmlns="http://www.w3.org/2000/svg">
<path d="M6.228 8.52128L4.94066 8.17595L5.46533 6.21662C4.67998 5.92697 3.95008 5.50486 3.30733 4.96862L1.872 6.40462L0.928663 5.46128L2.36466 4.02595C1.55405 3.05512 1.00939 1.89046 0.783997 0.645949L2.096 0.406616C2.602 3.20795 5.05266 5.33328 8 5.33328C10.9467 5.33328 13.398 3.20795 13.904 0.406616L15.216 0.645283C14.9909 1.88996 14.4465 3.05486 13.636 4.02595L15.0713 5.46128L14.128 6.40462L12.6927 4.96862C12.0499 5.50486 11.32 5.92697 10.5347 6.21662L11.0593 8.17662L9.772 8.52128L9.24666 6.56128C8.42157 6.70267 7.57843 6.70267 6.75333 6.56128L6.228 8.52128Z" fill="black"/>
</svg>
